<svg width="434" height="100" viewBox="0 0 434 100" fill="none" xmlns="http://www.w3.org/2000/svg">
<path d="M-1.33562e-05 76.3888L0 0L100 1.74846e-05L100 76.3888L50 99.9999L-1.33562e-05 76.3888Z" fill="#FF6687"/>
<path d="M100 11.1113H99.999V76.3887L88.8877 70.833V11.1113H11.1113L0 0H100V11.1113Z" fill="#F32C57"/>
<path d="M50 88.8884L100 65.2773V76.3884L50 99.9995V88.8884Z" fill="#BD024D"/>
<ellipse cx="58.0632" cy="45.5642" rx="12.2312" ry="12.2312" fill="#333333"/>
<ellipse cx="58.0626" cy="45.5655" rx="6.58602" ry="6.58602" fill="#FF6687"/>
<path d="M74.376 66.667L74.373 66.668H63.4961L55.4834 54.167L64.582 51.3896L74.376 66.667Z" fill="#333333"/>
<rect x="25" y="59.7227" width="16.6667" height="6.94444" fill="#333333"/>
<rect x="25" y="47.2227" width="16.6667" height="6.94444" fill="#333333"/>
<rect x="25" y="34.7227" width="16.6667" height="6.94444" fill="#333333"/>
<path d="M428.367 88.4434C425.789 88.4434 423.797 87.7843 422.391 86.4661C420.985 85.1186 420.282 83.1413 420.282 80.5343V59.4873H425.774V80.4025C425.774 81.5156 426.052 82.3797 426.609 82.9949C427.195 83.61 428 83.9176 429.026 83.9176C430.256 83.9176 431.281 83.5954 432.101 82.9509L433.639 86.8615C432.995 87.3888 432.204 87.7843 431.267 88.0479C430.329 88.3116 429.363 88.4434 428.367 88.4434ZM416.415 69.0661V64.6722H432.057V69.0661H416.415Z" fill="#BD024D"/>
<path d="M404.172 88.444C402.209 88.444 400.319 88.195 398.503 87.6971C396.716 87.1698 395.296 86.54 394.241 85.8077L396.35 81.6334C397.405 82.3072 398.664 82.8637 400.129 83.3031C401.594 83.7425 403.058 83.9622 404.523 83.9622C406.251 83.9622 407.496 83.7279 408.258 83.2592C409.049 82.7905 409.444 82.1607 409.444 81.3698C409.444 80.7253 409.181 80.242 408.653 79.9198C408.126 79.5683 407.438 79.3046 406.588 79.1289C405.739 78.9531 404.787 78.792 403.732 78.6455C402.707 78.4991 401.667 78.3087 400.612 78.0743C399.587 77.8107 398.65 77.4445 397.8 76.9758C396.951 76.4779 396.262 75.8188 395.735 74.9986C395.208 74.1784 394.944 73.0945 394.944 71.7471C394.944 70.2531 395.369 68.9642 396.218 67.8804C397.068 66.7673 398.254 65.9178 399.778 65.3319C401.33 64.7168 403.161 64.4092 405.27 64.4092C406.852 64.4092 408.448 64.5849 410.059 64.9365C411.671 65.288 413.003 65.7859 414.058 66.4304L411.949 70.6046C410.836 69.9309 409.708 69.4769 408.565 69.2425C407.452 68.9789 406.339 68.8471 405.226 68.8471C403.556 68.8471 402.311 69.096 401.491 69.594C400.7 70.092 400.305 70.7218 400.305 71.4834C400.305 72.1865 400.568 72.7137 401.096 73.0652C401.623 73.4168 402.311 73.695 403.161 73.9001C404.01 74.1051 404.948 74.2809 405.973 74.4274C407.028 74.5445 408.067 74.7349 409.093 74.9986C410.118 75.2622 411.055 75.6284 411.905 76.0971C412.784 76.5365 413.487 77.1662 414.014 77.9865C414.541 78.8067 414.805 79.8758 414.805 81.194C414.805 82.6587 414.365 83.9329 413.487 85.0168C412.637 86.1006 411.422 86.9501 409.84 87.5652C408.258 88.1511 406.368 88.444 404.172 88.444Z" fill="#BD024D"/>
<path d="M381.545 96.9688C380.52 96.9688 379.553 96.8517 378.645 96.6173C377.708 96.4123 376.917 96.0754 376.272 95.6067L377.854 91.5204C378.704 92.1355 379.773 92.4431 381.062 92.4431C382.058 92.4431 382.834 92.1209 383.391 91.4764C383.947 90.8613 384.226 89.9385 384.226 88.7082V64.6734H389.718V88.5764C389.718 91.1542 389 93.1901 387.565 94.684C386.159 96.2072 384.152 96.9688 381.545 96.9688ZM386.95 60.8067C385.924 60.8067 385.075 60.4845 384.401 59.8401C383.757 59.1956 383.435 58.4194 383.435 57.5113C383.435 56.5739 383.757 55.7976 384.401 55.1825C385.075 54.538 385.924 54.2158 386.95 54.2158C387.975 54.2158 388.81 54.5234 389.454 55.1385C390.128 55.7244 390.465 56.4714 390.465 57.3795C390.465 58.3461 390.143 59.1663 389.498 59.8401C388.854 60.4845 388.004 60.8067 386.95 60.8067Z" fill="#BD024D"/>
<path d="M371.261 88.137V64.6734H376.753V88.137H371.261ZM374.029 60.8067C373.004 60.8067 372.154 60.4845 371.48 59.8401C370.836 59.1956 370.514 58.4194 370.514 57.5113C370.514 56.5739 370.836 55.7976 371.48 55.1825C372.154 54.538 373.004 54.2158 374.029 54.2158C375.054 54.2158 375.889 54.5234 376.533 55.1385C377.207 55.7244 377.544 56.4714 377.544 57.3795C377.544 58.3461 377.222 59.1663 376.577 59.8401C375.933 60.4845 375.083 60.8067 374.029 60.8067Z" fill="#BD024D"/>
<path d="M358.56 88.1372V55.5342H364.052V88.1372H358.56Z" fill="#BD024D"/>
<path d="M342.254 88.444C339.647 88.444 337.362 87.9314 335.4 86.9061C333.466 85.8516 331.958 84.4163 330.874 82.6001C329.819 80.7839 329.292 78.7188 329.292 76.4046C329.292 74.0612 329.805 71.996 330.83 70.2092C331.884 68.393 333.32 66.9723 335.136 65.9471C336.981 64.9218 339.076 64.4092 341.419 64.4092C343.704 64.4092 345.74 64.9072 347.527 65.9031C349.314 66.8991 350.72 68.3051 351.745 70.1213C352.77 71.9375 353.283 74.0758 353.283 76.5365C353.283 76.7708 353.268 77.0344 353.239 77.3274C353.239 77.6203 353.224 77.8986 353.195 78.1622H333.642V74.5152H350.295L348.142 75.6577C348.171 74.3102 347.893 73.1238 347.307 72.0986C346.721 71.0733 345.916 70.2678 344.89 69.6819C343.895 69.096 342.737 68.8031 341.419 68.8031C340.072 68.8031 338.885 69.096 337.86 69.6819C336.864 70.2678 336.073 71.088 335.487 72.1425C334.931 73.1678 334.653 74.3834 334.653 75.7895V76.6683C334.653 78.0743 334.975 79.3193 335.619 80.4031C336.264 81.487 337.172 82.3218 338.344 82.9077C339.515 83.4935 340.863 83.7865 342.386 83.7865C343.704 83.7865 344.89 83.5814 345.945 83.1713C347 82.7612 347.937 82.1168 348.757 81.238L351.701 84.6213C350.647 85.8516 349.314 86.8036 347.703 87.4774C346.121 88.1218 344.305 88.444 342.254 88.444Z" fill="#BD024D"/>
<path d="M318.525 88.137V64.6734H324.018V88.137H318.525ZM321.293 60.8067C320.268 60.8067 319.419 60.4845 318.745 59.8401C318.101 59.1956 317.778 58.4194 317.778 57.5113C317.778 56.5739 318.101 55.7976 318.745 55.1825C319.419 54.538 320.268 54.2158 321.293 54.2158C322.319 54.2158 323.154 54.5234 323.798 55.1385C324.472 55.7244 324.809 56.4714 324.809 57.3795C324.809 58.3461 324.486 59.1663 323.842 59.8401C323.198 60.4845 322.348 60.8067 321.293 60.8067Z" fill="#BD024D"/>
<path d="M308.735 88.4434C306.157 88.4434 304.165 87.7843 302.759 86.4661C301.353 85.1186 300.65 83.1413 300.65 80.5343V59.4873H306.142V80.4025C306.142 81.5156 306.421 82.3797 306.977 82.9949C307.563 83.61 308.369 83.9176 309.394 83.9176C310.624 83.9176 311.649 83.5954 312.47 82.9509L314.007 86.8615C313.363 87.3888 312.572 87.7843 311.635 88.0479C310.697 88.3116 309.731 88.4434 308.735 88.4434ZM296.783 69.0661V64.6722H312.426V69.0661H296.783Z" fill="#BD024D"/>
<path d="M269.822 88.1365V64.6728H275.051V71.0001L274.128 69.0668C274.949 67.5728 276.135 66.4304 277.687 65.6395C279.269 64.8193 281.085 64.4092 283.136 64.4092C285.011 64.4092 286.68 64.7753 288.145 65.5077C289.639 66.24 290.811 67.3678 291.66 68.891C292.51 70.3849 292.934 72.3183 292.934 74.691V88.1365H287.442V75.394C287.442 73.3142 286.944 71.7617 285.948 70.7365C284.981 69.7112 283.619 69.1986 281.862 69.1986C280.573 69.1986 279.43 69.4622 278.434 69.9895C277.438 70.5168 276.662 71.3077 276.106 72.3622C275.578 73.3875 275.315 74.691 275.315 76.2728V88.1365H269.822Z" fill="#BD024D"/>
<path d="M253.518 88.444C250.911 88.444 248.626 87.9314 246.663 86.9061C244.73 85.8516 243.221 84.4163 242.137 82.6001C241.083 80.7839 240.556 78.7188 240.556 76.4046C240.556 74.0612 241.068 71.996 242.094 70.2092C243.148 68.393 244.583 66.9723 246.4 65.9471C248.245 64.9218 250.34 64.4092 252.683 64.4092C254.968 64.4092 257.004 64.9072 258.791 65.9031C260.577 66.8991 261.983 68.3051 263.009 70.1213C264.034 71.9375 264.547 74.0758 264.547 76.5365C264.547 76.7708 264.532 77.0344 264.503 77.3274C264.503 77.6203 264.488 77.8986 264.459 78.1622H244.906V74.5152H261.559L259.406 75.6577C259.435 74.3102 259.157 73.1238 258.571 72.0986C257.985 71.0733 257.179 70.2678 256.154 69.6819C255.158 69.096 254.001 68.8031 252.683 68.8031C251.335 68.8031 250.149 69.096 249.124 69.6819C248.128 70.2678 247.337 71.088 246.751 72.1425C246.195 73.1678 245.916 74.3834 245.916 75.7895V76.6683C245.916 78.0743 246.238 79.3193 246.883 80.4031C247.527 81.487 248.435 82.3218 249.607 82.9077C250.779 83.4935 252.126 83.7865 253.65 83.7865C254.968 83.7865 256.154 83.5814 257.209 83.1713C258.263 82.7612 259.201 82.1168 260.021 81.238L262.965 84.6213C261.91 85.8516 260.577 86.8036 258.966 87.4774C257.384 88.1218 255.568 88.444 253.518 88.444Z" fill="#BD024D"/>
<path d="M224.468 88.1365V64.6728H229.697V71.1319L229.081 69.2425C229.784 67.6607 230.883 66.4597 232.377 65.6395C233.9 64.8193 235.789 64.4092 238.045 64.4092V69.638C237.811 69.5794 237.591 69.5501 237.386 69.5501C237.181 69.5208 236.976 69.5061 236.771 69.5061C234.691 69.5061 233.036 70.1213 231.806 71.3516C230.575 72.5526 229.96 74.3541 229.96 76.7561V88.1365H224.468Z" fill="#BD024D"/>
<path d="M208.162 88.444C205.555 88.444 203.27 87.9314 201.308 86.9061C199.374 85.8516 197.866 84.4163 196.782 82.6001C195.727 80.7839 195.2 78.7188 195.2 76.4046C195.2 74.0612 195.713 71.996 196.738 70.2092C197.793 68.393 199.228 66.9723 201.044 65.9471C202.89 64.9218 204.984 64.4092 207.327 64.4092C209.612 64.4092 211.648 64.9072 213.435 65.9031C215.222 66.8991 216.628 68.3051 217.653 70.1213C218.678 71.9375 219.191 74.0758 219.191 76.5365C219.191 76.7708 219.176 77.0344 219.147 77.3274C219.147 77.6203 219.133 77.8986 219.103 78.1622H199.55V74.5152H216.203L214.05 75.6577C214.079 74.3102 213.801 73.1238 213.215 72.0986C212.629 71.0733 211.824 70.2678 210.799 69.6819C209.803 69.096 208.646 68.8031 207.327 68.8031C205.98 68.8031 204.794 69.096 203.768 69.6819C202.772 70.2678 201.982 71.088 201.396 72.1425C200.839 73.1678 200.561 74.3834 200.561 75.7895V76.6683C200.561 78.0743 200.883 79.3193 201.527 80.4031C202.172 81.487 203.08 82.3218 204.252 82.9077C205.423 83.4935 206.771 83.7865 208.294 83.7865C209.612 83.7865 210.799 83.5814 211.853 83.1713C212.908 82.7612 213.845 82.1168 214.665 81.238L217.609 84.6213C216.555 85.8516 215.222 86.8036 213.611 87.4774C212.029 88.1218 210.213 88.444 208.162 88.444Z" fill="#BD024D"/>
<path d="M182.005 88.1372V63.3554C182.005 60.8947 182.723 58.9321 184.158 57.4675C185.623 55.9735 187.703 55.2266 190.398 55.2266C191.364 55.2266 192.273 55.3291 193.122 55.5341C194.001 55.7392 194.733 56.0614 195.319 56.5008L193.825 60.6311C193.415 60.3089 192.946 60.0745 192.419 59.9281C191.892 59.7523 191.35 59.6644 190.793 59.6644C189.651 59.6644 188.787 59.9867 188.201 60.6311C187.615 61.2463 187.322 62.1836 187.322 63.4432V66.0796L187.498 68.5402V88.1372H182.005ZM178.139 69.2432V64.8493H193.781V69.2432H178.139Z" fill="#BD024D"/>
<path d="M164.952 88.444C162.345 88.444 160.06 87.9314 158.098 86.9061C156.164 85.8516 154.656 84.4163 153.572 82.6001C152.518 80.7839 151.99 78.7188 151.99 76.4046C151.99 74.0612 152.503 71.996 153.528 70.2092C154.583 68.393 156.018 66.9723 157.834 65.9471C159.68 64.9218 161.774 64.4092 164.118 64.4092C166.402 64.4092 168.438 64.9072 170.225 65.9031C172.012 66.8991 173.418 68.3051 174.443 70.1213C175.469 71.9375 175.981 74.0758 175.981 76.5365C175.981 76.7708 175.967 77.0344 175.937 77.3274C175.937 77.6203 175.923 77.8986 175.893 78.1622H156.34V74.5152H172.993L170.84 75.6577C170.87 74.3102 170.591 73.1238 170.005 72.0986C169.42 71.0733 168.614 70.2678 167.589 69.6819C166.593 69.096 165.436 68.8031 164.118 68.8031C162.77 68.8031 161.584 69.096 160.558 69.6819C159.562 70.2678 158.772 71.088 158.186 72.1425C157.629 73.1678 157.351 74.3834 157.351 75.7895V76.6683C157.351 78.0743 157.673 79.3193 158.318 80.4031C158.962 81.487 159.87 82.3218 161.042 82.9077C162.213 83.4935 163.561 83.7865 165.084 83.7865C166.402 83.7865 167.589 83.5814 168.643 83.1713C169.698 82.7612 170.635 82.1168 171.455 81.238L174.399 84.6213C173.345 85.8516 172.012 86.8036 170.401 87.4774C168.819 88.1218 167.003 88.444 164.952 88.444Z" fill="#BD024D"/>
<path d="M122.312 88.1365V57.3789H134.922C139.023 57.3789 142.231 58.3456 144.545 60.2789C146.888 62.2122 148.06 64.8925 148.06 68.3198C148.06 70.5754 147.533 72.5234 146.478 74.1638C145.424 75.7749 143.915 77.0198 141.952 77.8986C140.019 78.7481 137.69 79.1728 134.966 79.1728H125.475L128.024 76.5804V88.1365H122.312ZM142.436 88.1365L134.658 76.9759H140.766L148.587 88.1365H142.436ZM128.024 77.1956L125.475 74.4713H134.702C137.222 74.4713 139.111 73.9294 140.371 72.8456C141.66 71.7617 142.304 70.2531 142.304 68.3198C142.304 66.3572 141.66 64.8486 140.371 63.7941C139.111 62.7395 137.222 62.2122 134.702 62.2122H125.475L128.024 59.4001V77.1956Z" fill="#BD024D"/>
<path d="M192.342 39.6517V21.985H195.408V26.7517L194.908 25.485C195.486 24.3295 196.375 23.4295 197.575 22.785C198.775 22.1406 200.175 21.8184 201.775 21.8184C203.22 21.8184 204.486 22.0961 205.575 22.6517C206.686 23.2072 207.553 24.0517 208.175 25.185C208.797 26.3184 209.108 27.7517 209.108 29.485V39.6517H205.908V29.8517C205.908 28.1406 205.486 26.8517 204.642 25.985C203.82 25.1184 202.653 24.685 201.142 24.685C200.008 24.685 199.02 24.9072 198.175 25.3517C197.331 25.7961 196.675 26.4517 196.208 27.3184C195.764 28.185 195.542 29.2628 195.542 30.5517V39.6517H192.342Z" fill="#333333"/>
<path d="M179.798 39.8517C177.909 39.8517 176.242 39.4628 174.798 38.685C173.376 37.9072 172.265 36.8406 171.465 35.485C170.687 34.1295 170.298 32.5739 170.298 30.8184C170.298 29.0628 170.676 27.5072 171.431 26.1517C172.209 24.7961 173.265 23.7406 174.598 22.985C175.953 22.2072 177.476 21.8184 179.165 21.8184C180.876 21.8184 182.387 22.1961 183.698 22.9517C185.009 23.7072 186.031 24.7739 186.765 26.1517C187.52 27.5072 187.898 29.0961 187.898 30.9184C187.898 31.0517 187.887 31.2073 187.865 31.385C187.865 31.5628 187.853 31.7295 187.831 31.885H172.798V29.585H186.165L184.865 30.385C184.887 29.2517 184.653 28.2406 184.165 27.3517C183.676 26.4628 182.998 25.7739 182.131 25.285C181.287 24.7739 180.298 24.5184 179.165 24.5184C178.053 24.5184 177.065 24.7739 176.198 25.285C175.331 25.7739 174.653 26.4739 174.165 27.385C173.676 28.2739 173.431 29.2961 173.431 30.4517V30.985C173.431 32.1628 173.698 33.2184 174.231 34.1517C174.787 35.0628 175.553 35.7739 176.531 36.285C177.509 36.7961 178.631 37.0517 179.898 37.0517C180.942 37.0517 181.887 36.8739 182.731 36.5184C183.598 36.1628 184.353 35.6295 184.998 34.9184L186.765 36.985C185.965 37.9184 184.965 38.6295 183.765 39.1184C182.587 39.6073 181.265 39.8517 179.798 39.8517Z" fill="#333333"/>
<path d="M158.577 39.8517C157.11 39.8517 155.766 39.5184 154.543 38.8517C153.343 38.1628 152.377 37.1517 151.643 35.8184C150.932 34.485 150.577 32.8184 150.577 30.8184C150.577 28.8184 150.921 27.1517 151.61 25.8184C152.321 24.485 153.277 23.485 154.477 22.8184C155.699 22.1517 157.066 21.8184 158.577 21.8184C160.31 21.8184 161.843 22.1961 163.177 22.9517C164.51 23.7072 165.566 24.7628 166.343 26.1184C167.121 27.4517 167.51 29.0184 167.51 30.8184C167.51 32.6184 167.121 34.1961 166.343 35.5517C165.566 36.9072 164.51 37.9628 163.177 38.7184C161.843 39.4739 160.31 39.8517 158.577 39.8517ZM149.21 46.1184V21.985H152.277V26.7517L152.077 30.8517L152.41 34.9517V46.1184H149.21ZM158.31 37.0517C159.443 37.0517 160.454 36.7961 161.343 36.285C162.254 35.7739 162.966 35.0517 163.477 34.1184C164.01 33.1628 164.277 32.0628 164.277 30.8184C164.277 29.5517 164.01 28.4628 163.477 27.5517C162.966 26.6184 162.254 25.8961 161.343 25.385C160.454 24.8739 159.443 24.6184 158.31 24.6184C157.199 24.6184 156.188 24.8739 155.277 25.385C154.388 25.8961 153.677 26.6184 153.143 27.5517C152.632 28.4628 152.377 29.5517 152.377 30.8184C152.377 32.0628 152.632 33.1628 153.143 34.1184C153.677 35.0517 154.388 35.7739 155.277 36.285C156.188 36.7961 157.199 37.0517 158.31 37.0517Z" fill="#333333"/>
<path d="M132.215 39.9174C130.437 39.9174 128.781 39.6175 127.248 39.0175C125.737 38.4174 124.426 37.5841 123.315 36.5174C122.203 35.4286 121.337 34.1619 120.715 32.7174C120.092 31.273 119.781 29.6952 119.781 27.9841C119.781 26.273 120.092 24.6952 120.715 23.2508C121.337 21.8063 122.203 20.5508 123.315 19.4841C124.426 18.3952 125.737 17.5508 127.248 16.9508C128.759 16.3508 130.415 16.0508 132.215 16.0508C133.992 16.0508 135.626 16.3508 137.115 16.9508C138.626 17.5286 139.937 18.3619 141.048 19.4508C142.181 20.5174 143.048 21.773 143.648 23.2174C144.27 24.6619 144.581 26.2508 144.581 27.9841C144.581 29.7174 144.27 31.3063 143.648 32.7508C143.048 34.1952 142.181 35.4619 141.048 36.5508C139.937 37.6175 138.626 38.4508 137.115 39.0508C135.626 39.6286 133.992 39.9174 132.215 39.9174ZM132.215 36.9508C133.503 36.9508 134.692 36.7286 135.781 36.2841C136.892 35.8397 137.848 35.2174 138.648 34.4174C139.47 33.5952 140.103 32.6397 140.548 31.5508C141.015 30.4619 141.248 29.273 141.248 27.9841C141.248 26.6952 141.015 25.5063 140.548 24.4174C140.103 23.3286 139.47 22.3841 138.648 21.5841C137.848 20.7619 136.892 20.1286 135.781 19.6841C134.692 19.2397 133.503 19.0174 132.215 19.0174C130.903 19.0174 129.692 19.2397 128.581 19.6841C127.492 20.1286 126.537 20.7619 125.715 21.5841C124.892 22.3841 124.248 23.3286 123.781 24.4174C123.337 25.5063 123.115 26.6952 123.115 27.9841C123.115 29.273 123.337 30.4619 123.781 31.5508C124.248 32.6397 124.892 33.5952 125.715 34.4174C126.537 35.2174 127.492 35.8397 128.581 36.2841C129.692 36.7286 130.903 36.9508 132.215 36.9508Z" fill="#333333"/>
</svg>
