<svg width="100" height="100" viewBox="0 0 100 100" fill="none" xmlns="http://www.w3.org/2000/svg">
<path d="M-1.33563e-05 76.3889L0 0L100 1.74846e-05L100 76.3889L50 99.9999L-1.33563e-05 76.3889Z" fill="#FF6687"/>
<path d="M100 0V76.3887L88.8887 70.833V11.1113H11.1113L0 0H100Z" fill="#F32C57"/>
<path d="M50 88.8884L100 65.2773V76.3884L50 99.9995V88.8884Z" fill="#BD024D"/>
<circle cx="58.0642" cy="45.5642" r="12.2312" fill="#333333"/>
<circle cx="58.0645" cy="45.5645" r="6.58602" fill="#FF6687"/>
<path d="M74.376 66.666L74.373 66.667H63.4971L55.4834 54.166L64.583 51.3887L74.376 66.666Z" fill="#333333"/>
<rect x="25" y="59.7227" width="16.6667" height="6.94444" fill="#333333"/>
<rect x="25" y="47.2227" width="16.6667" height="6.94444" fill="#333333"/>
<rect x="25" y="34.7227" width="16.6667" height="6.94444" fill="#333333"/>
</svg>
